# xmcd CD database file
# Copyright (C) 1995-1998 Ti Kan
#
# Track frame offsets:
#	165
#	19901
#	37757
#	50495
#	69349
#	87557
#	107436
#	117719
#	126692
#	134875
#	151977
#	162219
#	176562
#	191304
#	204199
#	217985
#
# Disc length: 3155 seconds
#
# Revision: 1
# Processed by: cddbd v1.4PL0 Copyright (c) Steve Scherf et al.
# Submitted via: CDex 1.30
#
DISCID=e20c5110
DTITLE=Les Sampou - Borrowed and Blue
DYEAR=2001
DGENRE=Blues
TTITLE0=Lorraine
TTITLE1=Kokomo Blues
TTITLE2=Big Road Blues
TTITLE3=Farewell to you Baby
TTITLE4=Meet me in the morning
TTITLE5=Chinatown
TTITLE6=Statesboro Blues
TTITLE7=It won't be You
TTITLE8=Boogaloo down la rue
TTITLE9=You are my Sunshine
TTITLE10=Richland Women Blues
TTITLE11=Travelling Riverside Blues
TTITLE12=Sweet Perfume
TTITLE13=Police Dog Blues
TTITLE14=Weather Vane
TTITLE15=Holy Land
EXTD=\nYEAR: 2001  ID3G:   0
EXTT0=
EXTT1=
EXTT2=
EXTT3=
EXTT4=
EXTT5=
EXTT6=
EXTT7=
EXTT8=
EXTT9=
EXTT10=
EXTT11=
EXTT12=
EXTT13=
EXTT14=
EXTT15=
PLAYORDER=
